<svg width="300" height="100" viewBox="0 0 300 100" fill="none" xmlns="http://www.w3.org/2000/svg">
<path fill-rule="evenodd" clip-rule="evenodd" d="M50 0C22.3858 0 0 22.3858 0 50C0 77.6142 22.3858 100 50 100H250C277.614 100 300 77.6142 300 50C300 22.3858 277.614 0 250 0H50ZM50.3545 35.6V64H55.8745V54.48H61.3945L67.2345 64H73.3145L66.8345 53.32C67.8745 52.8667 68.7812 52.2267 69.5545 51.4C70.3279 50.5733 70.9145 49.6133 71.3145 48.52C71.7412 47.4 71.9545 46.24 71.9545 45.04C71.9545 43.8667 71.7279 42.72 71.2745 41.6C70.8479 40.48 70.2212 39.4667 69.3945 38.56C68.5945 37.6533 67.6345 36.9333 66.5145 36.4C65.4212 35.8667 64.2212 35.6 62.9145 35.6H50.3545ZM62.7945 49.64H55.8745V40.44H62.5545C63.2212 40.44 63.8345 40.64 64.3945 41.04C64.9812 41.44 65.4612 41.9867 65.8345 42.68C66.2079 43.3467 66.3945 44.1333 66.3945 45.04C66.3945 45.8933 66.2345 46.6667 65.9145 47.36C65.5945 48.0533 65.1679 48.6133 64.6345 49.04C64.1012 49.44 63.4879 49.64 62.7945 49.64ZM80.813 63.56C82.173 64.12 83.7063 64.4 85.413 64.4C87.1196 64.4 88.653 64.12 90.013 63.56C91.373 62.9733 92.5196 62.1733 93.453 61.16C94.413 60.1467 95.133 58.9867 95.613 57.68C96.1196 56.3733 96.373 55 96.373 53.56C96.373 52.0933 96.1196 50.7067 95.613 49.4C95.133 48.0933 94.413 46.9333 93.453 45.92C92.493 44.9067 91.333 44.12 89.973 43.56C88.6396 42.9733 87.1196 42.68 85.413 42.68C83.7063 42.68 82.173 42.9733 80.813 43.56C79.453 44.12 78.293 44.9067 77.333 45.92C76.3996 46.9333 75.6796 48.0933 75.173 49.4C74.6663 50.7067 74.413 52.0933 74.413 53.56C74.413 55 74.6663 56.3733 75.173 57.68C75.6796 58.9867 76.3996 60.1467 77.333 61.16C78.293 62.1733 79.453 62.9733 80.813 63.56ZM80.653 56.84C80.173 55.88 79.933 54.7867 79.933 53.56C79.933 52.3333 80.173 51.2533 80.653 50.32C81.133 49.36 81.7863 48.6133 82.613 48.08C83.4396 47.52 84.373 47.24 85.413 47.24C86.4263 47.24 87.3463 47.5067 88.173 48.04C88.9996 48.5733 89.653 49.32 90.133 50.28C90.6396 51.24 90.893 52.32 90.893 53.52C90.893 54.7467 90.6396 55.84 90.133 56.8C89.653 57.7333 88.9996 58.48 88.173 59.04C87.3463 59.5733 86.4263 59.84 85.413 59.84C84.373 59.84 83.4396 59.5733 82.613 59.04C81.7863 58.5067 81.133 57.7733 80.653 56.84ZM109.799 46.8L98.2392 60.72V64H115.759V60.24H104.079L115.559 46.32V43.04H98.7192V46.8H109.799ZM127.606 63.32C128.859 64.04 130.299 64.4 131.926 64.4C133.712 64.4 135.286 63.92 136.646 62.96C138.032 61.9733 139.112 60.6533 139.886 59C140.686 57.3467 141.086 55.5067 141.086 53.48C141.086 51.9867 140.832 50.6 140.326 49.32C139.846 48.0133 139.166 46.8667 138.286 45.88C137.406 44.8667 136.366 44.08 135.166 43.52C133.992 42.96 132.699 42.68 131.286 42.68C129.712 42.68 128.312 43.04 127.086 43.76C125.859 44.4533 124.846 45.4133 124.046 46.64V43.04H119.366V72.52H124.726V60.32C125.419 61.5733 126.379 62.5733 127.606 63.32ZM132.366 59.32C131.699 59.6667 130.952 59.84 130.126 59.84C129.379 59.84 128.646 59.6667 127.926 59.32C127.206 58.9467 126.566 58.44 126.006 57.8C125.472 57.16 125.046 56.4533 124.726 55.68V50.76C124.886 50.2533 125.139 49.7867 125.486 49.36C125.859 48.9333 126.286 48.56 126.766 48.24C127.246 47.92 127.739 47.68 128.246 47.52C128.779 47.3333 129.299 47.24 129.806 47.24C130.632 47.24 131.392 47.4 132.086 47.72C132.806 48.04 133.432 48.4933 133.966 49.08C134.499 49.64 134.899 50.2933 135.166 51.04C135.459 51.7867 135.606 52.6 135.606 53.48C135.606 54.3067 135.472 55.1067 135.206 55.88C134.966 56.6267 134.592 57.3067 134.086 57.92C133.606 58.5067 133.032 58.9733 132.366 59.32ZM149.797 63.56C151.157 64.12 152.691 64.4 154.397 64.4C156.104 64.4 157.637 64.12 158.997 63.56C160.357 62.9733 161.504 62.1733 162.437 61.16C163.397 60.1467 164.117 58.9867 164.597 57.68C165.104 56.3733 165.357 55 165.357 53.56C165.357 52.0933 165.104 50.7067 164.597 49.4C164.117 48.0933 163.397 46.9333 162.437 45.92C161.477 44.9067 160.317 44.12 158.957 43.56C157.624 42.9733 156.104 42.68 154.397 42.68C152.691 42.68 151.157 42.9733 149.797 43.56C148.437 44.12 147.277 44.9067 146.317 45.92C145.384 46.9333 144.664 48.0933 144.157 49.4C143.651 50.7067 143.397 52.0933 143.397 53.56C143.397 55 143.651 56.3733 144.157 57.68C144.664 58.9867 145.384 60.1467 146.317 61.16C147.277 62.1733 148.437 62.9733 149.797 63.56ZM149.637 56.84C149.157 55.88 148.917 54.7867 148.917 53.56C148.917 52.3333 149.157 51.2533 149.637 50.32C150.117 49.36 150.771 48.6133 151.597 48.08C152.424 47.52 153.357 47.24 154.397 47.24C155.411 47.24 156.331 47.5067 157.157 48.04C157.984 48.5733 158.637 49.32 159.117 50.28C159.624 51.24 159.877 52.32 159.877 53.52C159.877 54.7467 159.624 55.84 159.117 56.8C158.637 57.7333 157.984 58.48 157.157 59.04C156.331 59.5733 155.411 59.84 154.397 59.84C153.357 59.84 152.424 59.5733 151.597 59.04C150.771 58.5067 150.117 57.7733 149.637 56.84ZM174.135 63.56C175.495 64.12 177.028 64.4 178.735 64.4C180.282 64.4 181.668 64.1733 182.895 63.72C184.148 63.24 185.228 62.5867 186.135 61.76C187.068 60.9333 187.775 60 188.255 58.96L183.015 57.36C182.802 57.84 182.468 58.2667 182.015 58.64C181.562 59.0133 181.042 59.3067 180.455 59.52C179.895 59.7333 179.295 59.84 178.655 59.84C177.642 59.84 176.722 59.5733 175.895 59.04C175.068 58.48 174.402 57.7333 173.895 56.8C173.415 55.84 173.175 54.7467 173.175 53.52C173.175 52.2667 173.415 51.1733 173.895 50.24C174.375 49.28 175.028 48.5467 175.855 48.04C176.708 47.5067 177.642 47.24 178.655 47.24C179.562 47.24 180.388 47.4533 181.135 47.88C181.882 48.28 182.482 48.8667 182.935 49.64L188.175 48.04C187.375 46.44 186.162 45.1467 184.535 44.16C182.908 43.1733 180.962 42.68 178.695 42.68C176.428 42.68 174.468 43.1733 172.815 44.16C171.162 45.1467 169.882 46.4667 168.975 48.12C168.095 49.7467 167.655 51.5467 167.655 53.52C167.655 54.96 167.908 56.3333 168.415 57.64C168.948 58.9467 169.695 60.12 170.655 61.16C171.615 62.1733 172.775 62.9733 174.135 63.56ZM201.713 46.8L190.153 60.72V64H207.673V60.24H195.993L207.473 46.32V43.04H190.633V46.8H201.713ZM225.4 64H230.76V50.92C230.76 49.9067 230.667 48.9067 230.48 47.92C230.32 46.9333 230.013 46.0533 229.56 45.28C229.133 44.48 228.493 43.8533 227.64 43.4C226.813 42.92 225.747 42.68 224.44 42.68C223.24 42.68 222.093 42.8533 221 43.2C219.933 43.52 218.987 44 218.16 44.64C217.333 45.2533 216.653 46.0133 216.12 46.92V43.04H211.28V64H216.64V51.76C216.907 50.9067 217.333 50.16 217.92 49.52C218.507 48.8533 219.16 48.3333 219.88 47.96C220.627 47.5867 221.36 47.4 222.08 47.4C223.12 47.4 223.933 47.7867 224.52 48.56C225.107 49.3333 225.4 50.56 225.4 52.24V64ZM235.42 43.04V64H240.78V43.04H235.42ZM235.42 34.8V40.12H240.78V34.8H235.42ZM241.056 71.36C241.962 71.68 242.909 71.84 243.896 71.84C245.282 71.84 246.509 71.52 247.576 70.88C248.669 70.24 249.536 69.3333 250.176 68.16C250.842 66.9867 251.176 65.6533 251.176 64.16V43.04H245.816V64.56C245.816 65.0667 245.696 65.52 245.456 65.92C245.242 66.32 244.936 66.6267 244.536 66.84C244.162 67.08 243.736 67.2 243.256 67.2C242.829 67.2 242.402 67.1333 241.976 67C241.549 66.8667 241.189 66.64 240.896 66.32L238.576 69.96C239.322 70.6 240.149 71.0667 241.056 71.36ZM245.816 34.8V40.12H251.176V34.8H245.816Z" fill="#D9D9D9"/>
</svg>
