<svg width="2256" height="1462" viewBox="0 0 2256 1462" fill="none" xmlns="http://www.w3.org/2000/svg">
<mask id="mask0_44_501" style="mask-type:alpha" maskUnits="userSpaceOnUse" x="0" y="0" width="2256" height="1462">
<rect y="0.150253" width="2256" height="1461.14" fill="#D9D9D9"/>
</mask>
<g mask="url(#mask0_44_501)">
<path d="M2245.26 1308.49C2245.26 1309.29 2245.25 1310.1 2245.23 1310.9C2245.2 1312.59 2245.15 1314.27 2245.09 1315.96C2244.35 1336.66 2240.95 1357 2234.08 1377.08C2233.78 1377.96 2233.47 1378.84 2233.16 1379.72C2220.42 1415.32 2196.63 1450.07 2157.23 1484.54C2149.25 1491.51 2140.63 1498.47 2131.35 1505.41C2129.18 1507.03 2126.97 1508.66 2124.72 1510.28L2057.91 1510.26L688.943 1509.82L590.456 1509.79L-184.453 1509.53C-184.453 1509.53 -184.996 1508.12 -186.014 1505.39C-191.795 1489.77 -212.787 1431.02 -232.795 1349.18C-253.415 1264.8 -271.853 1130.58 -272.423 990.212C-272.431 985.355 -272.431 980.481 -272.414 975.607C-271.603 809.317 -245.107 636.545 -167.11 529.314C-166.196 528.044 -165.273 526.791 -164.332 525.546C-162.978 523.749 -161.623 521.951 -160.268 520.18C-159.656 519.376 -159.052 518.598 -158.431 517.803C56.9999 238.734 401.124 239.175 567.678 256.9C584.002 258.637 598.609 260.538 611.214 262.361C618.807 263.459 625.683 264.522 631.766 265.507C869.759 303.947 977.167 184.099 977.167 184.099C1144.95 29.3028 1303.63 -8.49751 1523.19 11.6644C1550.74 14.1706 1578.12 17.9385 1605.14 22.8818C1712.02 42.3869 1813.67 80.3773 1900.92 134.451C1910.38 140.31 1919.66 146.342 1928.76 152.582C1932.03 154.82 1935.28 157.093 1938.52 159.392C1950.09 167.601 1961.35 176.114 1972.29 184.929C2034.32 234.949 2085.66 294.665 2121.71 362.868C2149.74 415.887 2168.52 474.005 2175.9 536.703C2177.41 549.364 2178.43 562.206 2178.98 575.238V575.247C2179.68 592.306 2179.59 609.685 2178.61 627.367C2176.66 662.799 2171.2 699.442 2161.94 737.207C2161.94 737.216 2161.94 737.216 2161.94 737.233C2161.21 740.18 2160.52 743.136 2159.87 746.065C2148.57 796.051 2146.07 843.323 2149.07 888.288C2160.18 1053.55 2245.99 1187.4 2245.26 1308.49Z" fill="#EBF3FA"/>
<path d="M1930.28 644.911H1875.38V523.239C1874.52 522.756 1873.68 522.272 1872.83 521.788H1856.46V521.727H1761.24V521.788H1761.16V540.031H1761.24V552.571H1761.16V570.805H1761.24V583.397H1761.16V601.64H1761.24V601.709L1751.15 601.64V506.232H1644.29V518.314H1644.24V536.548H1644.29V552.579H1644.24V570.814H1644.29V583.405H1644.24V601.649H1644.29V613.298H1644.24V631.542H1644.29V643.191H1644.24V661.426H1644.29V672.393H1644.24V683.973H1644.29V685.235H1523.84V789.613H1478.85V815.902H1430.33V770.618H1343.05V647.581H1329.4V635.327H1327.45V647.581H1316.13V647.564H1259.52V635.327H1257.57V647.564H1242.82V709.432L1169.51 709.095V747.276H1107.35V511.236H923.2V764.102H866.963V627.367H682.792V1511.99L1941.17 1507.23L1930.28 644.911Z" fill="#DFEBFA"/>
<path d="M682.964 788.447V871.358V994.698V1505.95H590.473V994.698V871.358V788.447H682.964Z" fill="#DFEBFA"/>
<path d="M1549.66 636.528H1546.27V686.107H1549.66V636.528Z" fill="#DFEBFA"/>
<path d="M1608.72 593.957H1603.44V689.962H1608.72V593.957Z" fill="#DFEBFA"/>
<path d="M937.608 493.554H935.408V511.236H937.608V493.554Z" fill="#DFEBFA"/>
<path d="M984.225 493.554H982.025V511.236H984.225V493.554Z" fill="#DFEBFA"/>
<path d="M1091.1 493.554H1088.9V511.236H1091.1V493.554Z" fill="#DFEBFA"/>
<path d="M1656.6 492.577H1654.9V506.223H1656.6V492.577Z" fill="#DFEBFA"/>
<path d="M1736.82 492.577H1735.12V506.223H1736.82V492.577Z" fill="#DFEBFA"/>
<path d="M1049.31 493.554H1047.11V511.236H1049.31V493.554Z" fill="#DFEBFA"/>
<path d="M731.263 667.7H709.572V704.515H731.263V667.7Z" fill="#EEF6FF"/>
<path d="M1321.59 676.662H1299.89V713.477H1321.59V676.662Z" fill="#EEF6FF"/>
<path d="M974.898 540.791H953.208V577.607H974.898V540.791Z" fill="#EEF6FF"/>
<path d="M1017.95 540.791H996.261V577.607H1017.95V540.791Z" fill="#EEF6FF"/>
<path d="M1843.93 825.979H1822.24V862.794H1843.93V825.979Z" fill="#EEF6FF"/>
<path d="M742.108 845.847H720.418V882.662H742.108V845.847Z" fill="#EEF6FF"/>
<path d="M2149.07 888.279C2146.06 843.315 2148.58 796.043 2159.87 746.057C2160.53 743.128 2161.21 740.181 2161.94 737.225C2161.94 737.216 2161.94 737.216 2161.94 737.199C2171.2 699.433 2176.65 662.791 2178.61 627.359H2057.93V1510.24L2124.74 1510.26C2126.98 1508.64 2129.19 1507.02 2131.37 1505.39C2140.64 1498.45 2149.27 1491.49 2157.24 1484.52C2196.65 1450.06 2220.43 1415.31 2233.17 1379.7C2233.49 1378.83 2233.79 1377.95 2234.09 1377.06C2240.96 1356.98 2244.36 1336.65 2245.09 1315.94C2245.15 1314.25 2245.2 1312.59 2245.23 1310.88C2245.24 1310.08 2245.25 1309.28 2245.25 1308.47C2245.99 1187.4 2160.17 1053.55 2149.07 888.279Z" fill="#DFEBFA"/>
<path d="M2058.09 788.446V871.358V994.697V1505.95H1972.51V994.697V871.358V788.446H2058.09Z" fill="#DFEBFA"/>
<path d="M2102.78 667.7H2082.71V704.515H2102.78V667.7Z" fill="#EEF6FF"/>
<path d="M2161.94 737.208C2161.94 737.216 2161.94 737.216 2161.94 737.234C2161.21 740.181 2160.52 743.136 2159.87 746.066V737.216H2161.94V737.208Z" fill="#EEF6FF"/>
<path d="M2112.82 845.847H2092.75V882.662H2112.82V845.847Z" fill="#EEF6FF"/>
<path d="M581.491 662.99H535.358V541.336C534.659 540.835 533.943 540.368 533.244 539.875H519.5V539.815H439.51V539.875H439.433V558.127H439.51V570.667H439.433V588.902H439.51V601.484H439.433V619.719H439.51V619.78L431.029 619.719V524.32H341.29V536.393H341.247V554.627H341.29V570.658H341.247V588.893H341.29V601.476H341.247V619.711H341.29V631.343H341.247V649.603H341.29V661.236H341.247V679.47H341.29V690.446H341.247V702.026H341.29V703.296H240.128V807.675H202.337V833.964H161.596V788.68H88.2847V665.669H76.8182V653.415H75.1789V665.669H65.6623V665.66H18.1225V653.415H16.4832V665.66H4.1021V727.52L-57.4754 727.192V765.364H-109.683V529.315H-167.102C-245.098 636.545 -271.595 809.317 -272.406 975.607C-272.431 980.481 -272.431 985.355 -272.414 990.212C-271.836 1130.58 -253.407 1264.8 -232.786 1349.18C-212.787 1431.03 -191.786 1489.78 -186.006 1505.39C-184.987 1508.11 -184.444 1509.53 -184.444 1509.53L590.481 1509.82V1509.78L581.491 662.99Z" fill="#DFEBFA"/>
<path d="M261.81 654.616H258.962V704.195H261.81V654.616Z" fill="#DFEBFA"/>
<path d="M311.411 612.045H306.977V708.05H311.411V612.045Z" fill="#DFEBFA"/>
<path d="M351.617 510.674H350.194V524.32H351.617V510.674Z" fill="#DFEBFA"/>
<path d="M418.993 510.674H417.569V524.32H418.993V510.674Z" fill="#DFEBFA"/>
<path d="M17.5875 958.505H-0.625977V995.32H17.5875V958.505Z" fill="#EEF6FF"/>
<path d="M377.639 542.407H359.426V579.223H377.639V542.407Z" fill="#EEF6FF"/>
<path d="M304.354 850.73H286.14V887.545H304.354V850.73Z" fill="#EEF6FF"/>
<path d="M453.056 921.69H434.842V958.505H453.056V921.69Z" fill="#EEF6FF"/>
<path d="M611.223 262.37V1508.56H567.686V256.908C584.002 258.645 598.609 260.547 611.223 262.37Z" fill="#D1E3FB"/>
<path d="M1972.29 184.929V1508.56H1928.77V152.581C1932.04 154.82 1935.3 157.093 1938.53 159.391C1950.1 167.601 1961.35 176.114 1972.29 184.929Z" fill="#D1E3FB"/>
<path d="M877.756 1487.33H850.742L843.167 1143.08H884.426L877.756 1487.33Z" fill="#2B478B"/>
<path d="M995.131 1487.33H732.462V1463.56L866.342 1451.47L995.131 1463.56V1487.33Z" fill="#2B478B"/>
<path d="M985.718 1165.66H741.876C729.425 1165.66 719.331 1155.55 719.331 1143.08H1008.27C1008.27 1155.55 998.176 1165.66 985.718 1165.66Z" fill="#2B478B"/>
<path d="M681.282 1143.08C660.575 1143.08 643.785 1126.26 643.785 1105.52V805.489C643.785 746.083 682.559 697.93 730.383 697.93H926.22C974.053 697.93 1012.82 746.083 1012.82 805.489V1143.08H681.282Z" fill="#F99746"/>
<path d="M685.156 1143.08C673.801 1143.08 664.595 1133.86 664.595 1122.49V805.489C664.595 746.083 703.369 697.93 751.194 697.93H947.03C994.863 697.93 1033.63 746.083 1033.63 805.489V1143.08H685.156Z" fill="#ED7D2B"/>
<path d="M1139.01 1143.08H666.726C653.603 1143.08 642.965 1132.43 642.965 1119.28C642.965 1106.14 653.603 1095.48 666.726 1095.48H1139.01C1152.13 1095.48 1162.77 1106.14 1162.77 1119.28C1162.77 1132.43 1152.13 1143.08 1139.01 1143.08Z" fill="#F99746"/>
<path d="M1140.77 188.109C1140.77 188.109 1161.18 153.748 1209.97 157.568C1209.97 157.568 1280.82 100.297 1356.36 149.928C1356.36 149.928 1436.66 137.631 1496.14 160.575C1535.79 175.872 1548.89 191.92 1548.89 191.92L1140.77 188.109Z" fill="#F8FCFF"/>
<path d="M1444.3 282.385C1444.3 282.385 1456.15 261.437 1484.49 263.761C1484.49 263.761 1525.64 228.839 1569.51 259.103C1569.51 259.103 1616.15 251.602 1650.69 265.594C1673.72 274.918 1681.33 284.71 1681.33 284.71L1444.3 282.385Z" fill="#F8FCFF"/>
<path d="M687.942 434.218C687.942 434.218 703.947 405.915 742.229 409.061C742.229 409.061 797.81 361.893 857.075 402.769C857.075 402.769 920.077 392.641 966.736 411.541C997.84 424.141 1008.12 437.364 1008.12 437.364L687.942 434.218Z" fill="#F8FCFF"/>
<path d="M1648.75 1505.55C1648.75 1505.55 1648.75 1487 1651.39 1480.83C1654.03 1474.66 1663.7 1449.55 1663.7 1449.55H1701.52C1701.52 1449.55 1708.56 1472.46 1709 1479.95C1709.44 1487.44 1709 1505.55 1709 1505.55H1648.75Z" fill="#233862"/>
<path d="M1888.91 1505.55C1888.91 1505.55 1888.91 1487 1886.27 1480.83C1883.63 1474.66 1873.96 1449.55 1873.96 1449.55H1836.14C1836.14 1449.55 1829.1 1472.46 1828.66 1479.95C1828.22 1487.44 1828.66 1505.55 1828.66 1505.55H1888.91Z" fill="#233862"/>
<path d="M1737.37 464.456C1737.37 464.456 1736.04 505.756 1730.76 524.259L1688.99 553.443L1846.23 577.01L1808.73 525.115C1808.73 525.115 1797.42 469.736 1803.35 449.246C1809.29 428.773 1737.37 464.456 1737.37 464.456Z" fill="#FFB27D"/>
<path d="M1737.15 470.16C1737.15 470.151 1749.58 500.139 1773.01 499.482C1796.43 498.817 1801.76 472.294 1801.76 472.294L1737.15 470.16Z" fill="#ED985F"/>
<path d="M1723.16 445.884C1723.16 445.884 1715.6 408.067 1710.32 396.607C1705.04 385.157 1700.64 334.048 1759.15 331.403C1759.15 331.403 1781.58 334.048 1793.89 326.555C1793.89 326.555 1793.89 334.048 1790.81 336.692C1790.81 336.692 1811.05 331.844 1826.88 349.465C1842.71 367.086 1816.33 428.765 1817.65 443.3L1723.16 445.884Z" fill="#2C3A64"/>
<path d="M1770.31 487.893C1753.34 487.591 1722.11 464.957 1722.11 436.931V393.194C1722.11 382.962 1729.24 374.587 1737.94 374.587H1802.69C1811.39 374.587 1818.52 382.962 1818.52 393.194V434.46C1818.53 463.851 1789.78 488.239 1770.31 487.893Z" fill="#FFB27D"/>
<path d="M1722.11 416.545C1722.11 416.545 1722.2 390.264 1742.98 386.22C1763.77 382.175 1810.28 399.027 1816.87 379.868C1823.47 360.7 1726.97 361.037 1722.11 373.257C1717.25 385.485 1722.11 416.545 1722.11 416.545Z" fill="#2C3A64"/>
<path d="M1653.48 863.183C1653.48 863.183 1660.1 1065.61 1650.21 1181.11C1640.31 1296.61 1650.27 1457.34 1650.27 1457.34C1650.27 1457.34 1681.92 1474.82 1716.23 1457.34C1716.23 1457.34 1753.86 1234.21 1753.62 1181.11C1753.37 1124.55 1794.57 872.015 1794.57 872.015L1653.48 863.183Z" fill="#2B478B"/>
<path d="M1887.55 1457.33C1887.55 1457.33 1855.91 1474.81 1821.6 1457.33C1821.6 1457.33 1783.98 1234.2 1784.21 1181.1C1784.32 1157.21 1777.04 1098.36 1768.58 1038.36C1757.01 956.266 1743.26 872.006 1743.26 872.006L1889.82 862.837C1889.82 862.837 1877.73 1065.61 1887.63 1181.1C1897.52 1296.6 1887.55 1457.33 1887.55 1457.33Z" fill="#2B478B"/>
<path d="M1888.06 896.861C1888.06 896.861 1825.58 908.977 1768.58 908.977C1743.72 908.977 1716.71 906.237 1695.2 903.36C1671.42 900.197 1654.37 896.861 1654.37 896.861C1654.37 896.861 1641.71 897.976 1649.19 835.416C1654.87 787.807 1653.1 744.83 1651.83 700.609C1651.68 695.691 1651.78 689.875 1652.1 683.402C1654.52 631.844 1670.09 539.02 1681.96 534.042C1681.96 534.042 1699.6 527.474 1730.76 524.276C1730.76 524.881 1748.86 551.369 1770.32 554.342C1783.66 549.053 1794.15 544.551 1808.74 525.132C1827.22 527.284 1847.38 530.957 1868.95 536.764C1868.95 536.764 1871.19 546.599 1879.67 717.201C1883.02 784.765 1906.05 897.086 1888.06 896.861Z" fill="#9FC1F4"/>
<path d="M1784.21 1181.1C1784.32 1157.21 1777.04 1098.36 1768.58 1038.36C1777.36 1002.51 1798.74 968.02 1798.74 968.02C1825.78 1044.02 1784.21 1181.1 1784.21 1181.1Z" fill="#233862"/>
<path d="M1594.09 737.104C1592.6 738.349 1597.8 751.243 1605.45 768.06C1621.21 802.594 1647.38 853.599 1647.38 853.599C1643.59 867.997 1639.43 876.889 1639.43 876.889C1595.41 842.252 1567.02 812.774 1548.91 790.175C1523.44 758.39 1518.22 740.163 1518.22 740.163C1616.23 540.325 1685.21 532.962 1685.21 532.962L1677.06 665.03C1677.06 665.021 1598.63 733.328 1594.09 737.104Z" fill="#9FC1F4"/>
<path d="M1642.15 856.114C1642.15 856.114 1665.9 834.085 1675.57 846.417C1685.24 858.749 1687 878.142 1679.53 876.82C1672.05 875.498 1656.66 868.446 1654.46 871.972C1652.26 875.498 1642.41 882.23 1639.41 876.88C1636.44 871.531 1642.15 856.114 1642.15 856.114Z" fill="#FFB27D"/>
<path d="M1647.37 853.599C1643.58 867.997 1639.42 876.889 1639.42 876.889C1595.4 842.252 1567.02 812.774 1548.9 790.175C1562.55 789.155 1582.49 784.264 1605.44 768.06C1621.21 802.594 1647.37 853.599 1647.37 853.599Z" fill="#FFB27D"/>
<path d="M2025.93 740.163C2025.93 740.163 2020.7 758.389 1995.24 790.175C1977.12 812.774 1948.73 842.252 1904.72 876.889C1904.72 876.889 1900.56 867.997 1896.77 853.599C1896.77 853.599 1922.94 802.594 1938.7 768.06C1946.35 751.251 1951.55 738.349 1950.06 737.104C1946.54 734.166 1898.62 692.468 1877.25 673.879C1871.05 668.478 1867.09 665.021 1867.09 665.021L1862.19 534.915C1862.18 534.915 1927.91 540.325 2025.93 740.163Z" fill="#9FC1F4"/>
<path d="M1901.99 856.114C1901.99 856.114 1878.23 834.085 1868.56 846.417C1858.88 858.749 1857.13 878.142 1864.6 876.82C1872.08 875.498 1887.47 868.446 1889.67 871.972C1891.87 875.498 1901.73 882.23 1904.72 876.88C1907.71 871.531 1901.99 856.114 1901.99 856.114Z" fill="#FFB27D"/>
<path d="M1896.77 853.599C1900.55 867.997 1904.71 876.889 1904.71 876.889C1948.73 842.252 1977.12 812.774 1995.23 790.175C1981.57 789.155 1961.63 784.264 1938.69 768.06C1922.93 802.594 1896.77 853.599 1896.77 853.599Z" fill="#FFB27D"/>
<path d="M1732.96 514.191C1732.96 514.191 1725.98 517.103 1723.99 525.037C1723.99 525.037 1752 553.893 1770.32 554.333L1732.96 514.191Z" fill="#ED7D2B"/>
<path d="M1770.32 554.333L1806.47 512.739C1806.47 512.739 1813.94 517.657 1813.83 525.754C1813.83 525.754 1785.86 555.431 1770.32 554.333Z" fill="#ED7D2B"/>
<path d="M1763.8 551.274C1763.8 551.274 1736.21 789.838 1745.82 818.918C1750.76 833.886 1757.39 846.832 1762.64 855.88C1766.43 862.388 1775.82 862.37 1779.57 855.846C1786.9 843.107 1796.47 824.665 1796.47 815.306C1796.47 800.148 1775.54 551.067 1775.54 551.067L1763.8 551.274Z" fill="#F99746"/>
<path d="M1756.59 539.573C1756.59 539.573 1773.27 537.896 1783.41 538.933C1785.42 539.141 1786.54 541.344 1785.57 543.116C1782.72 548.249 1776.91 557.142 1770.85 557.142C1762.32 557.142 1749.02 540.169 1756.59 539.573Z" fill="#ED7D2B"/>
<path d="M1756.79 459.72C1756.79 459.72 1762.08 466.884 1771.32 466.625C1780.55 466.366 1784.89 459.72 1784.89 459.72C1784.89 459.72 1769.31 457.162 1756.79 459.72Z" fill="white"/>
<path d="M1420.72 934.428L1106.75 934.955L1152.98 727.459L1466.96 726.932L1420.72 934.428Z" fill="#416299"/>
<path d="M1430.65 934.67L1116.68 935.206L1162.9 727.442L1476.87 726.915L1430.65 934.67Z" fill="#233862"/>
<path d="M1291.5 986.401L1226.28 987.006L1271.43 849.148L1336.66 848.543L1291.5 986.401Z" fill="#112544"/>
<path d="M1328.44 980.43H1186.01V986.998H1328.44V980.43Z" fill="#112544"/>
<path d="M1091.28 986.324H820.804L812.374 924.187H1082.85L1091.28 986.324Z" fill="white"/>
<path d="M865.626 965.66L870.431 940.175H876.644L869.361 972.747H863.891L847.809 940.175H853.995L865.626 965.66Z" fill="#9FC1F4"/>
<path d="M904.796 965.168H892.2L890.595 972.756H884.719L892.588 940.184H897.661L914.391 972.756H908.498L904.796 965.168ZM893.166 960.605H902.596L896.048 947.089L893.166 960.605Z" fill="#9FC1F4"/>
<path d="M945.555 962.143C945.624 963.742 945.451 965.211 945.037 966.559C944.623 967.907 943.958 969.074 943.035 970.059C942.112 971.045 940.921 971.814 939.472 972.367C938.022 972.92 936.297 973.196 934.304 973.196C932.311 973.196 930.456 972.833 928.739 972.108C927.022 971.382 925.503 970.353 924.183 969.022C922.863 967.683 921.768 966.075 920.905 964.174C920.033 962.281 919.447 960.156 919.127 957.796L918.765 955.16C918.446 952.818 918.472 950.693 918.843 948.791C919.214 946.89 919.887 945.265 920.862 943.926C921.845 942.586 923.105 941.549 924.649 940.815C926.194 940.089 927.988 939.717 930.024 939.717C931.957 939.717 933.709 939.994 935.279 940.555C936.84 941.117 938.212 941.886 939.377 942.88C940.55 943.874 941.517 945.058 942.293 946.423C943.07 947.797 943.648 949.293 944.036 950.917H938.411C938.152 949.889 937.824 948.964 937.419 948.143C937.013 947.322 936.513 946.622 935.891 946.052C935.279 945.481 934.545 945.041 933.683 944.747C932.82 944.453 931.81 944.297 930.654 944.297C929.377 944.297 928.29 944.539 927.393 945.023C926.496 945.507 925.797 946.207 925.279 947.123C924.761 948.039 924.434 949.172 924.295 950.511C924.157 951.859 924.209 953.38 924.442 955.1L924.804 957.788C925.029 959.412 925.365 960.89 925.831 962.221C926.297 963.552 926.884 964.684 927.609 965.635C928.333 966.585 929.196 967.32 930.206 967.838C931.215 968.357 932.371 968.625 933.683 968.625C934.899 968.625 935.917 968.486 936.72 968.201C937.522 967.916 938.161 967.501 938.635 966.948C939.11 966.395 939.446 965.721 939.645 964.909C939.843 964.105 939.938 963.18 939.929 962.135H945.555V962.143Z" fill="#9FC1F4"/>
<path d="M973.785 965.168H961.188L959.583 972.756H953.708L961.576 940.184H966.65L983.379 972.756H977.486L973.785 965.168ZM962.155 960.605H971.585L965.036 947.089L962.155 960.605Z" fill="#9FC1F4"/>
<path d="M1017.43 972.747H1011.78L994.147 949.638L997.279 972.747H991.628L987.21 940.175H992.861L1010.55 963.379L1007.4 940.175H1013.01L1017.43 972.747Z" fill="#9FC1F4"/>
<path d="M1047.74 944.738H1037.6L1041.4 972.747H1035.79L1031.99 944.738H1021.94L1021.32 940.175H1047.11L1047.74 944.738Z" fill="#9FC1F4"/>
<path d="M787.465 986.09L812.374 924.187L820.804 986.323L787.465 986.09Z" fill="#9FC1F4"/>
<path d="M515.065 973.101H520.94V871.721L460.804 718.031L568.178 634.687L564.572 630.038L453.729 716.078L515.065 872.836V973.101Z" fill="#233862"/>
<path d="M580.309 645.308C583.01 643.39 583.648 639.639 581.733 636.934L572.786 624.299C570.87 621.594 567.126 620.955 564.425 622.874C561.725 624.792 561.086 628.543 563.002 631.248L571.949 643.882C573.864 646.587 577.609 647.227 580.309 645.308Z" fill="#233862"/>
<path d="M466.386 716.259C466.386 711.956 462.9 708.464 458.604 708.464C454.307 708.464 450.821 711.956 450.821 716.259C450.821 720.563 454.307 724.055 458.604 724.055C462.9 724.055 466.386 720.563 466.386 716.259Z" fill="#233862"/>
<path d="M489.466 987.049H548.61V981.069C548.61 975.054 543.744 970.189 537.748 970.189H500.768C494.53 970.189 489.466 975.253 489.466 981.51V987.049Z" fill="#233862"/>
<path d="M511.816 973.106H524.24V878.907H511.816V973.106Z" fill="#233862"/>
<path d="M566.996 732.749C567.272 733.06 567.557 733.379 567.842 733.673L567.902 733.742C568.178 734.054 568.454 734.339 568.73 734.624C576.763 741.607 603.38 729.093 629.135 706.027C654.88 682.97 670.264 657.857 664.233 649.085C663.983 648.774 663.724 648.463 663.448 648.16L663.387 648.091C663.128 647.771 662.852 647.46 662.568 647.141C638.962 620.704 598.436 618.44 572.044 642.076C545.659 665.721 543.39 706.304 566.996 732.749Z" fill="#F99746"/>
<path d="M567.842 733.673L567.902 733.734C567.988 733.855 568.075 733.959 568.17 734.054C568.342 734.261 568.541 734.434 568.739 734.615C576.763 741.59 603.389 729.093 629.134 706.019C654.88 682.97 670.264 657.857 664.241 649.085C664.077 648.86 663.922 648.644 663.741 648.454C663.655 648.35 663.56 648.247 663.448 648.16L663.387 648.083C657.917 642.897 643.077 647.521 625.744 658.764C618.367 663.552 610.533 669.541 602.776 676.489C596.693 681.951 591.18 687.516 586.392 692.943C570.767 710.711 562.889 727.105 567.842 733.673Z" fill="#F9DDBF"/>
<path d="M586.392 692.943C590.93 696.694 596.763 698.932 603.13 698.932C617.72 698.932 629.549 687.084 629.549 672.47C629.549 667.449 628.151 662.757 625.744 658.764C618.367 663.552 610.533 669.541 602.776 676.489C596.694 681.951 591.18 687.516 586.392 692.943Z" fill="#FFEFE1"/>
<g opacity="0.7">
<path d="M1349.98 1322.57C1349.98 1322.57 1317.49 1284.6 1347.98 1260.48C1347.98 1260.48 1370.26 1246.97 1388.41 1248.07C1388.41 1248.07 1362.67 1291.28 1371 1295.59C1379.32 1299.88 1396.21 1245.35 1396.21 1245.35C1396.21 1245.35 1446.9 1240.43 1463.2 1248.28C1463.2 1248.28 1419.87 1283.8 1428.99 1285.91C1438.12 1288.03 1484.92 1253.16 1484.92 1253.16C1484.92 1253.16 1532.09 1261.2 1529.58 1290.03C1527.06 1318.85 1510.81 1327.75 1503.66 1326.99C1496.52 1326.22 1454.72 1310.25 1453.82 1316.11C1452.9 1321.97 1478.06 1341.14 1495.68 1342.03C1495.68 1342.03 1462.42 1378.77 1440.31 1368.16C1418.21 1357.56 1416.32 1340.75 1402.54 1334.45C1388.76 1328.15 1377 1328.16 1382.69 1334.59C1388.37 1341.02 1413.32 1347.27 1421.19 1361.22C1429.07 1375.19 1436.15 1384.6 1413.27 1381.15C1390.4 1377.7 1353.23 1360.95 1351.6 1341.75C1349.98 1322.57 1349.98 1322.57 1349.98 1322.57Z" fill="#77A4E5"/>
<path d="M1506.4 1290.81C1506.4 1290.81 1378.27 1285.87 1349.97 1322.57C1349.97 1322.57 1343.72 1341.34 1324.46 1358.43L1321.46 1366.63C1321.46 1366.63 1343.66 1343.18 1351.6 1341.76C1351.61 1341.76 1339.19 1296.29 1506.4 1290.81Z" fill="#77A4E5"/>
<path d="M1324.47 1358.43C1324.47 1358.43 1296.96 1378.8 1295.05 1415.2L1300.05 1415.65C1300.05 1415.65 1308.83 1378.02 1324.71 1363.3C1340.58 1348.58 1324.47 1358.43 1324.47 1358.43Z" fill="#77A4E5"/>
<path d="M1249.78 1291.49C1249.78 1291.49 1295.35 1265.93 1274.08 1231.24C1274.08 1231.24 1257.07 1209.94 1238.84 1204.47C1238.84 1204.47 1248.57 1256.2 1238.84 1257.42C1229.12 1258.63 1232.16 1199 1232.16 1199C1232.16 1199 1184.16 1175.87 1165.33 1177.69C1165.33 1177.69 1195.1 1228.21 1185.38 1226.99C1175.65 1225.77 1142.24 1174.65 1142.24 1174.65C1142.24 1174.65 1093.02 1165.53 1085.12 1194.74C1077.23 1223.95 1089.98 1238.55 1097.27 1240.38C1104.56 1242.21 1151.34 1241.6 1150.13 1247.69C1148.91 1253.77 1117.32 1263.51 1099.7 1258.03C1099.7 1258.03 1119.15 1306.11 1144.66 1303.67C1170.18 1301.23 1178.08 1285.41 1193.87 1284.2C1209.67 1282.98 1221.22 1287.24 1213.31 1291.5C1205.42 1295.76 1178.68 1292.9 1165.92 1303.76C1153.16 1314.63 1142.83 1321.32 1166.52 1326.19C1190.22 1331.06 1232.75 1328.01 1241.26 1309.76C1249.78 1291.49 1249.78 1291.49 1249.78 1291.49Z" fill="#77A4E5"/>
<path d="M1107.6 1203.86C1107.6 1203.86 1235.19 1245.25 1249.77 1291.5C1249.77 1291.5 1249.16 1312.19 1261.91 1335.93V1345.06C1261.91 1345.06 1248.55 1314.02 1241.26 1309.76C1241.27 1309.75 1269.83 1269.58 1107.6 1203.86Z" fill="#77A4E5"/>
<path d="M1261.92 1335.92C1261.92 1335.92 1281.6 1365.85 1270.38 1402.28L1265.31 1400.92C1265.31 1400.92 1270.23 1360.79 1259.93 1340.6C1249.65 1320.43 1261.92 1335.92 1261.92 1335.92Z" fill="#77A4E5"/>
<path d="M1318.6 1234.83C1318.6 1234.83 1250.46 1196.6 1282.26 1144.73C1282.26 1144.73 1307.7 1112.88 1334.96 1104.69C1334.96 1104.69 1320.42 1182.05 1334.96 1183.86C1349.5 1185.69 1344.95 1096.5 1344.95 1096.5C1344.95 1096.5 1416.73 1061.92 1444.89 1064.65C1444.89 1064.65 1400.37 1140.18 1414.9 1138.35C1429.44 1136.53 1479.41 1060.09 1479.41 1060.09C1479.41 1060.09 1552.99 1046.44 1564.81 1090.12C1576.62 1133.81 1557.54 1155.65 1546.64 1158.38C1535.73 1161.11 1465.78 1160.2 1467.6 1169.3C1469.42 1178.4 1516.65 1192.96 1543 1184.77C1543 1184.77 1513.93 1256.66 1475.77 1253.03C1437.61 1249.39 1425.8 1225.73 1402.19 1223.9C1378.56 1222.08 1361.3 1228.46 1373.11 1234.83C1384.92 1241.2 1424.9 1236.91 1443.98 1253.16C1463.06 1269.4 1478.51 1279.41 1443.08 1286.7C1407.64 1293.97 1344.04 1289.43 1331.33 1262.13C1318.6 1234.83 1318.6 1234.83 1318.6 1234.83Z" fill="#9FC1F4"/>
<path d="M1531.2 1103.78C1531.2 1103.78 1340.41 1165.66 1318.6 1234.83C1318.6 1234.83 1319.51 1265.76 1300.43 1301.26V1314.9C1300.43 1314.9 1320.42 1268.5 1331.32 1262.12C1331.32 1262.13 1288.62 1202.06 1531.2 1103.78Z" fill="#9FC1F4"/>
<path d="M1300.43 1301.26C1300.43 1301.26 1271.01 1346.01 1287.78 1400.49L1295.35 1398.45C1295.35 1398.45 1288 1338.45 1303.4 1308.27C1318.79 1278.09 1300.43 1301.26 1300.43 1301.26Z" fill="#9FC1F4"/>
<path d="M1320.25 1506.43C1385.23 1506.43 1437.92 1453.66 1437.92 1388.57H1202.59C1202.58 1453.66 1255.26 1506.43 1320.25 1506.43Z" fill="#9FC1F4"/>
<path d="M1349.2 1505.52C1344.41 1506.12 1339.54 1506.42 1334.59 1506.42C1269.6 1506.42 1216.93 1453.65 1216.93 1388.56H1246.16C1246.15 1448.7 1291.11 1498.31 1349.2 1505.52Z" fill="#AFCDFB"/>
<path d="M1440.59 1388.57H1198.72V1392.18H1440.59V1388.57Z" fill="#77A4E5"/>
</g>
<path d="M429.873 1512.21H429.424C426.767 1512.21 424.627 1508.72 424.687 1504.47L431.874 1007.68L453.039 1003.74L434.989 1504.5C434.834 1508.83 432.59 1512.21 429.873 1512.21Z" fill="#2B478B"/>
<path d="M1494.13 1512.21H1494.58C1497.23 1512.21 1499.37 1508.72 1499.31 1504.47L1492.13 1007.68L1470.96 1003.74L1489.01 1504.5C1489.17 1508.83 1491.41 1512.21 1494.13 1512.21Z" fill="#2B478B"/>
<path d="M1539.73 1016.82H390.314C383.092 1016.82 377.234 1010.95 377.234 1003.72V999.943C377.234 992.71 383.092 986.842 390.314 986.842H1539.73C1546.96 986.842 1552.81 992.71 1552.81 999.943V1003.72C1552.81 1010.95 1546.96 1016.82 1539.73 1016.82Z" fill="#2B478B"/>
<path d="M63.6261 644.98C59.5969 637.194 151.588 609.142 153.046 686.013C153.046 686.013 325.371 681.77 243.087 585.558C214.597 552.251 217.531 524.709 218.385 499.077C219.248 473.436 200.646 398.924 136.86 406.434C136.86 406.434 120.156 399.624 99.3112 410.461C51.9008 435.1 -54.3003 673.335 63.6261 644.98Z" fill="#163560"/>
<path d="M345.362 730.917C345.362 730.917 356.579 713.814 365.621 713.477C374.663 713.14 391.401 708.447 390.063 711.8C388.726 715.154 378.347 715.491 377.337 717.504C376.336 719.518 392.738 722.534 397.423 722.871C402.108 723.208 413.16 722.871 412.824 725.222C412.487 727.572 392.911 737.294 379.097 735.955C365.284 734.615 348.209 739.982 348.209 739.982L345.362 730.917Z" fill="#FFB27D"/>
<path d="M350.384 750.534C350.384 750.534 326.812 782.588 295.476 796.518C295.476 796.518 295.467 796.518 295.432 796.527C284.363 801.453 272.301 804.115 259.98 802.291C251.025 800.969 242.699 797.78 235.089 793.459C220.775 785.379 208.989 773.358 200.292 762.434C197.661 759.142 195.323 755.944 193.269 752.997C186.678 743.491 183.132 736.448 183.132 736.448L191.104 599.869C191.104 599.869 219.628 606.497 228.005 619.236C236.383 631.991 271.533 733.432 277.555 736.448C283.586 739.464 346.872 725.213 346.872 725.213C346.872 725.213 355.914 735.445 350.384 750.534Z" fill="#9FC1F4"/>
<path d="M-52.9629 1420.68C-52.9629 1420.68 -72.2722 1438.33 -68.5018 1450.88C-64.7314 1463.42 -47.3117 1471.78 -44.9562 1487.1C-42.6008 1502.43 -33.1791 1510.79 -24.7065 1510.79C-16.2253 1510.79 15.7067 1510.79 15.7067 1510.79C15.7067 1510.79 21.9447 1500.01 6.87169 1496.75C-8.20129 1493.5 -13.8785 1475.48 -12.938 1458.76C-11.9976 1442.04 -14.353 1419.74 -14.353 1419.74L-46.3798 1412.31L-52.9629 1420.68Z" fill="#233862"/>
<path d="M110.476 1428.17C110.476 1428.17 103.53 1502.95 112.003 1507.13L220.499 1506.9C220.499 1506.9 220.499 1494.36 203.071 1491.57C185.642 1488.79 155.03 1478.57 149.854 1455.8C144.677 1433.06 110.476 1428.17 110.476 1428.17Z" fill="#233862"/>
<path d="M235.089 793.468C220.775 785.387 208.989 773.366 200.292 762.443C197.661 759.15 195.323 755.953 193.269 753.006C199.248 724.694 208.023 685.771 206.125 710.418C203.666 742.411 228.601 783.4 235.089 793.468Z" fill="#80A3D8"/>
<path d="M33.1609 891.71C55.49 841.561 69.148 827.163 66.5424 811.599C64.6011 800.01 72.4525 595.591 72.4525 595.591C75.1012 594.77 80.4074 594.035 83.315 593.387C92.4693 591.348 100.053 584.909 103.211 576.06C107.007 565.404 110.036 549.658 109.958 529.937L112.814 530.499L160.897 540.04C160.897 540.04 159.802 555.198 159.767 569.475C159.767 569.596 159.767 569.708 159.767 569.829C159.707 582.23 167.834 593.18 179.723 596.619C185.797 598.374 191.086 599.877 191.086 599.877C191.086 599.877 208.748 650.373 212.121 702.242C215.495 754.12 180.008 776.65 212.389 880.312C245.451 986.185 20.8316 919.417 33.1609 891.71Z" fill="#FFB27D"/>
<path d="M160.906 540.031C160.906 540.031 159.81 555.189 159.776 569.466C132.865 568.705 118.646 544.119 112.814 530.49L160.906 540.031Z" fill="#E8945B"/>
<path d="M169.896 553.556C169.896 553.556 106.231 554.61 106.188 514.883C106.144 475.155 97.8962 448.547 138.542 446.187C179.188 443.837 187.1 458.986 190.336 472.243C193.571 485.5 186.453 552.26 169.896 553.556Z" fill="#FFB27D"/>
<path d="M167.541 445.219C167.541 445.219 150.112 491.826 123.357 498.714C96.602 505.601 84.9975 498.428 84.9975 498.428C84.9975 498.428 105.515 482.104 109.777 453.602C109.777 453.593 154.392 423.035 167.541 445.219Z" fill="#163560"/>
<path d="M163.218 449.004C163.218 449.004 176.143 453.844 181.466 463.29C186.669 472.528 191.104 484.757 190.077 499.759C190.077 499.759 203.209 468.086 188.455 450.162C172.795 431.159 163.218 449.004 163.218 449.004Z" fill="#163560"/>
<path d="M156.04 528.909C156.04 528.909 160.431 534.699 169.223 534.284C176.307 533.947 179.033 527.794 179.033 527.794C179.033 527.794 166.031 524.665 156.04 528.909Z" fill="#EBF3FA"/>
<path d="M27.0179 686.013C27.0179 686.013 25.4045 708.845 27.0179 736.24C28.0964 754.397 46.4307 778.724 49.0363 784.739C55.5677 799.828 62.9273 802.283 62.9273 802.283L119.889 816.265L139.923 821.191L203.088 802.291C203.088 802.291 231.853 721.86 220.309 676.584C208.756 631.308 191.112 599.869 191.112 599.869C191.112 599.869 139.569 650.416 72.4611 595.582L27.0179 686.013Z" fill="#9FC1F4"/>
<path d="M43.6956 743.655C44.7741 761.812 46.4393 778.733 49.0363 784.748C55.5676 799.837 62.9273 802.291 62.9273 802.291L119.889 816.274L144.625 808.989C144.625 808.989 62.0386 796.449 71.1842 725.282L43.6956 743.655Z" fill="#F2CCAA"/>
<path d="M199.067 814.502C199.067 814.502 230.343 912.028 232.354 945.231C234.364 978.433 172.562 1416.9 170.077 1432.2C167.731 1446.62 149.854 1455.81 149.854 1455.81C149.854 1455.81 141.631 1460.67 129.897 1457.35C113.616 1452.74 108.465 1447.23 108.465 1447.23C108.465 1447.23 84.1174 1134.52 99.1818 1022.81C114.246 911.103 114.427 814.502 114.427 814.502H199.067Z" fill="#233862"/>
<path d="M66.5424 811.599C66.5424 811.599 18.83 875.723 14.378 919.071C9.92594 962.42 7.39798 1114.68 -2.07547 1156.94C-11.5489 1199.2 -46.3712 1280.52 -46.3712 1412.32C-46.3712 1412.32 -42.7561 1419.88 -31.5743 1423.91C-28.0024 1425.19 -23.2139 1426.44 -18.5634 1427.51C-9.34882 1429.63 0.107367 1425.11 4.31779 1416.63C27.8548 1369.16 102.84 1216.05 106.688 1184.26C109.406 1161.77 133.081 1012.91 184.728 925.562C197.126 904.587 177.118 821.2 177.118 821.2L66.5424 811.599Z" fill="#2B478B"/>
<path d="M157.455 529.972C157.455 529.972 158.559 534.656 170.181 533.93C170.181 533.93 179.939 533.325 179.646 528.183C179.646 528.183 170.181 524.527 157.455 529.972Z" fill="white"/>
<path d="M204.063 799.448C204.063 799.448 191.509 809.395 166.557 809.896C136.756 810.501 62.9273 802.291 62.9273 802.291C62.9273 802.291 59.6487 811.469 59.7781 821.165C59.7781 821.165 149.957 843.946 202.199 824.493C202.208 824.493 208.946 811.797 204.063 799.448Z" fill="#233862"/>
<path d="M160.112 820.206C160.112 811.711 166.212 804.789 173.71 804.789C181.207 804.789 187.307 811.702 187.307 820.206C187.307 828.71 181.207 835.624 173.71 835.624C166.212 835.624 160.112 828.71 160.112 820.206ZM164.625 820.206C164.625 826.221 168.705 831.104 173.718 831.104C178.731 831.104 182.812 826.212 182.812 820.206C182.812 814.2 178.731 809.309 173.718 809.309C168.697 809.309 164.625 814.2 164.625 820.206Z" fill="white"/>
<path d="M-34.1551 817.058L58.2338 897.635L168.357 770.954L75.9685 690.377L-34.1551 817.058Z" fill="#ED7D2B"/>
<path d="M83.7723 817.389C83.7723 817.389 117.62 821.356 117.516 829.402C117.413 837.447 109.078 853.988 104.902 854.723C100.718 855.457 77.3531 832.357 77.3531 832.357L83.7723 817.389Z" fill="#FFB27D"/>
<path d="M72.4525 595.582C72.4525 595.582 27.2594 598.754 9.93457 640.936C-7.3903 683.117 -40.2627 753.939 -40.2627 765.856C-40.2627 777.774 -21.9024 814.502 76.7061 835.615C76.7061 835.615 86.9042 824.873 86.283 816.369C86.283 816.369 24.7314 763.411 24.8954 757.223C25.206 745.513 34.9901 730.061 89.0267 675.91C103.729 661.201 72.4525 595.582 72.4525 595.582Z" fill="#9FC1F4"/>
</g>
</svg>
